<svg width="23" height="17" viewBox="0 0 23 17" fill="none" xmlns="http://www.w3.org/2000/svg">
<path fill-rule="evenodd" clip-rule="evenodd" d="M19.8333 1.41667H2.83333C2.45761 1.41667 2.09728 1.56592 1.8316 1.8316C1.56592 2.09728 1.41667 2.45761 1.41667 2.83333V14.1667C1.41667 14.5424 1.56592 14.9027 1.8316 15.1684C2.09728 15.4341 2.45761 15.5833 2.83333 15.5833H19.8333C20.2091 15.5833 20.5694 15.4341 20.8351 15.1684C21.1007 14.9027 21.25 14.5424 21.25 14.1667V2.83333C21.25 2.45761 21.1007 2.09728 20.8351 1.8316C20.5694 1.56592 20.2091 1.41667 19.8333 1.41667ZM2.83333 0C2.08189 0 1.36122 0.298511 0.829864 0.829864C0.298511 1.36122 0 2.08189 0 2.83333L0 14.1667C0 14.9181 0.298511 15.6388 0.829864 16.1701C1.36122 16.7015 2.08189 17 2.83333 17H19.8333C20.5848 17 21.3054 16.7015 21.8368 16.1701C22.3682 15.6388 22.6667 14.9181 22.6667 14.1667V2.83333C22.6667 2.08189 22.3682 1.36122 21.8368 0.829864C21.3054 0.298511 20.5848 0 19.8333 0H2.83333Z" fill="#00498D"/>
<path d="M2.83203 4.95833C2.83203 4.77047 2.90666 4.5903 3.0395 4.45747C3.17234 4.32463 3.3525 4.25 3.54036 4.25H6.3737C6.56156 4.25 6.74173 4.32463 6.87457 4.45747C7.0074 4.5903 7.08203 4.77047 7.08203 4.95833V6.375C7.08203 6.56286 7.0074 6.74303 6.87457 6.87587C6.74173 7.00871 6.56156 7.08333 6.3737 7.08333H3.54036C3.3525 7.08333 3.17234 7.00871 3.0395 6.87587C2.90666 6.74303 2.83203 6.56286 2.83203 6.375V4.95833Z" fill="#00498D"/>
<path fill-rule="evenodd" clip-rule="evenodd" d="M2.83203 9.20833C2.83203 9.02047 2.90666 8.8403 3.0395 8.70747C3.17234 8.57463 3.3525 8.5 3.54036 8.5H10.6237C10.8116 8.5 10.9917 8.57463 11.1246 8.70747C11.2574 8.8403 11.332 9.02047 11.332 9.20833C11.332 9.39619 11.2574 9.57636 11.1246 9.7092C10.9917 9.84204 10.8116 9.91667 10.6237 9.91667H3.54036C3.3525 9.91667 3.17234 9.84204 3.0395 9.7092C2.90666 9.57636 2.83203 9.39619 2.83203 9.20833ZM2.83203 12.0417C2.83203 11.8538 2.90666 11.6736 3.0395 11.5408C3.17234 11.408 3.3525 11.3333 3.54036 11.3333H4.95703C5.14489 11.3333 5.32506 11.408 5.4579 11.5408C5.59074 11.6736 5.66536 11.8538 5.66536 12.0417C5.66536 12.2295 5.59074 12.4097 5.4579 12.5425C5.32506 12.6754 5.14489 12.75 4.95703 12.75H3.54036C3.3525 12.75 3.17234 12.6754 3.0395 12.5425C2.90666 12.4097 2.83203 12.2295 2.83203 12.0417ZM7.08203 12.0417C7.08203 11.8538 7.15666 11.6736 7.2895 11.5408C7.42234 11.408 7.6025 11.3333 7.79036 11.3333H9.20703C9.39489 11.3333 9.57506 11.408 9.7079 11.5408C9.84074 11.6736 9.91536 11.8538 9.91536 12.0417C9.91536 12.2295 9.84074 12.4097 9.7079 12.5425C9.57506 12.6754 9.39489 12.75 9.20703 12.75H7.79036C7.6025 12.75 7.42234 12.6754 7.2895 12.5425C7.15666 12.4097 7.08203 12.2295 7.08203 12.0417ZM11.332 12.0417C11.332 11.8538 11.4067 11.6736 11.5395 11.5408C11.6723 11.408 11.8525 11.3333 12.0404 11.3333H13.457C13.6449 11.3333 13.8251 11.408 13.9579 11.5408C14.0907 11.6736 14.1654 11.8538 14.1654 12.0417C14.1654 12.2295 14.0907 12.4097 13.9579 12.5425C13.8251 12.6754 13.6449 12.75 13.457 12.75H12.0404C11.8525 12.75 11.6723 12.6754 11.5395 12.5425C11.4067 12.4097 11.332 12.2295 11.332 12.0417ZM15.582 12.0417C15.582 11.8538 15.6567 11.6736 15.7895 11.5408C15.9223 11.408 16.1025 11.3333 16.2904 11.3333H17.707C17.8949 11.3333 18.0751 11.408 18.2079 11.5408C18.3407 11.6736 18.4154 11.8538 18.4154 12.0417C18.4154 12.2295 18.3407 12.4097 18.2079 12.5425C18.0751 12.6754 17.8949 12.75 17.707 12.75H16.2904C16.1025 12.75 15.9223 12.6754 15.7895 12.5425C15.6567 12.4097 15.582 12.2295 15.582 12.0417Z" fill="#00498D"/>
</svg>
